<svg xmlns="http://www.w3.org/2000/svg" id="Capa_1" width="512" height="512" enable-background="new 0 0 509.921 509.921" viewBox="0 0 509.921 509.921"><g><path fill="#4D4D4D" d="m278.4 433.053-8.391 8.391v-89.895l-15-9.46-15 9.46v89.898l-8.394-8.394c-5.857-5.858-15.355-5.858-21.213 0s-5.858 15.355 0 21.213l33.999 33.999c5.811 5.815 15.18 6.03 21.198.014.002-.002.002-.002.003-.003.004-.004.008-.007.011-.01l33.999-33.999c5.858-5.858 5.858-15.355 0-21.213-5.856-5.86-15.355-5.86-21.212-.001z" class="active-path" data-old_color="#000000" data-original="#000000"/><path fill="#4D4D4D" d="m37.633 100.854.006.004 95.35 60.14 13.12-8.27v-18.92l-92.469-58.329 14.89-3.372c8.08-1.829 13.146-9.862 11.317-17.942-1.829-8.079-9.862-13.146-17.942-11.316l-50.212 11.37c-7.891 1.773-13.185 9.705-11.317 17.941l11.37 50.212c1.831 8.09 9.876 13.146 17.942 11.316 8.08-1.83 13.146-9.862 11.316-17.942z" class="active-path" data-old_color="#000000" data-original="#000000"/><path fill="#4D4D4D" d="m498.225 54.218-50.212-11.37c-8.077-1.831-16.112 3.237-17.942 11.316-1.83 8.08 3.237 16.113 11.317 17.942l14.89 3.372-92.379 58.27v17.73l13.08 9.49 95.3-60.11.006-.004-3.372 14.892c-1.83 8.08 3.237 16.113 11.316 17.942 8.076 1.831 16.113-3.235 17.942-11.316l11.37-50.212c1.876-8.277-3.416-16.142-11.316-17.942z" class="active-path" data-old_color="#000000" data-original="#000000"/><path fill="#4D4D4D" d="m82.219 316.068 63.89 40.3v-68.65l-63.89-40.3z" class="active-path" data-old_color="#000000" data-original="#000000"/><path fill="#4D4D4D" d="m240.009 247.418-63.9 40.31v68.64l63.9-40.3z" class="active-path" data-old_color="#000000" data-original="#000000"/><path fill="#4D4D4D" d="m226.889 220.228c-22.576-14.241-15.067-9.505-65.78-41.49-50.698 31.976-43.196 27.244-65.78 41.49 24.88 15.694 40.239 25.382 65.78 41.49 27.665-17.447 43.43-27.392 65.78-41.49z" class="active-path" data-old_color="#000000" data-original="#000000"/><path fill="#4D4D4D" d="m270.009 316.068 63.89 40.3v-68.65l-63.89-40.3z" class="active-path" data-old_color="#000000" data-original="#000000"/><path fill="#4D4D4D" d="m363.899 356.368 63.9-40.3v-68.65l-63.9 40.31z" class="active-path" data-old_color="#000000" data-original="#000000"/><path fill="#4D4D4D" d="m414.679 220.228c-22.576-14.241-15.086-9.517-65.78-41.49-24.272 15.312-54.154 34.097-65.88 41.49h.11c53.979 34.049 32.244 20.346 65.77 41.49 27.666-17.448 43.43-27.392 65.78-41.49z" class="active-path" data-old_color="#000000" data-original="#000000"/><path fill="#4D4D4D" d="m240.009 193.028v-68.64l-63.9-40.31v68.64.01c36.178 22.82 21.199 13.373 63.9 40.3z" class="active-path" data-old_color="#000000" data-original="#000000"/><path fill="#4D4D4D" d="m270.009 192.968v.06l63.89-40.3v-.06-68.59l-63.89 40.3z" class="active-path" data-old_color="#000000" data-original="#000000"/><path fill="#4D4D4D" d="m255.009 98.378c33.633-21.211 12.826-8.094 65.77-41.49-28.919-18.249-16.916-10.675-60.434-38.133-3.26-2.057-7.413-2.056-10.673.001-44.023 27.777-32.003 20.193-60.443 38.133 24.989 15.762 40.091 25.288 65.78 41.489z" class="active-path" data-old_color="#000000" data-original="#000000"/></g></svg>